<svg width="40" height="40" viewBox="0 0 40 40" fill="none" xmlns="http://www.w3.org/2000/svg">
<circle cx="20" cy="20" r="20" fill="#EE26C2"/>
<path d="M20 13.5601H30" stroke="white" stroke-width="1.5" stroke-miterlimit="10" stroke-linecap="round" stroke-linejoin="round"/>
<path d="M23.65 18.5H22.22C20.44 18.5 20 18.06 20 16.3V12.2C20 10.44 20.44 10 22.22 10H27.78C29.56 10 30 10.44 30 12.2V16.31C30 18.07 29.56 18.51 27.78 18.51" stroke="white" stroke-width="1.5" stroke-linecap="round" stroke-linejoin="round"/>
<path d="M10 25.0601H20" stroke="white" stroke-width="1.5" stroke-miterlimit="10" stroke-linecap="round" stroke-linejoin="round"/>
<path d="M13.5 30H12.22C10.44 30 10 29.56 10 27.8V23.7C10 21.94 10.44 21.5 12.22 21.5H17.78C19.56 21.5 20 21.94 20 23.7V27.81C20 29.57 19.56 30.01 17.78 30.01" stroke="white" stroke-width="1.5" stroke-linecap="round" stroke-linejoin="round"/>
<path d="M30 23C30 26.87 26.87 30 23 30L24.05 28.25" stroke="white" stroke-width="1.5" stroke-linecap="round" stroke-linejoin="round"/>
<path d="M10 17C10 13.13 13.13 10 17 10L15.95 11.75" stroke="white" stroke-width="1.5" stroke-linecap="round" stroke-linejoin="round"/>
</svg>
